<svg xmlns="http://www.w3.org/2000/svg" viewBox="0 0 16 14" shape-rendering="crispEdges" role="img" aria-label="Mascote do Sabichao: uma coruja com capelo"><rect x="2" y="0" width="1" height="1" fill="#0F1D33"/><rect x="3" y="0" width="1" height="1" fill="#1B2A4A"/><rect x="4" y="0" width="1" height="1" fill="#1B2A4A"/><rect x="5" y="0" width="1" height="1" fill="#1B2A4A"/><rect x="6" y="0" width="1" height="1" fill="#1B2A4A"/><rect x="7" y="0" width="1" height="1" fill="#1B2A4A"/><rect x="8" y="0" width="1" height="1" fill="#1B2A4A"/><rect x="9" y="0" width="1" height="1" fill="#1B2A4A"/><rect x="10" y="0" width="1" height="1" fill="#1B2A4A"/><rect x="11" y="0" width="1" height="1" fill="#1B2A4A"/><rect x="12" y="0" width="1" height="1" fill="#1B2A4A"/><rect x="13" y="0" width="1" height="1" fill="#FFD700"/><rect x="3" y="1" width="1" height="1" fill="#1B2A4A"/><rect x="4" y="1" width="1" height="1" fill="#1B2A4A"/><rect x="5" y="1" width="1" height="1" fill="#1B2A4A"/><rect x="6" y="1" width="1" height="1" fill="#1B2A4A"/><rect x="7" y="1" width="1" height="1" fill="#1B2A4A"/><rect x="8" y="1" width="1" height="1" fill="#1B2A4A"/><rect x="9" y="1" width="1" height="1" fill="#1B2A4A"/><rect x="10" y="1" width="1" height="1" fill="#1B2A4A"/><rect x="11" y="1" width="1" height="1" fill="#1B2A4A"/><rect x="12" y="1" width="1" height="1" fill="#1B2A4A"/><rect x="7" y="2" width="1" height="1" fill="#3D2B1F"/><rect x="8" y="2" width="1" height="1" fill="#3D2B1F"/><rect x="4" y="3" width="1" height="1" fill="#8B5E3C"/><rect x="5" y="3" width="1" height="1" fill="#3D2B1F"/><rect x="6" y="3" width="1" height="1" fill="#6B4226"/><rect x="7" y="3" width="1" height="1" fill="#6B4226"/><rect x="8" y="3" width="1" height="1" fill="#6B4226"/><rect x="9" y="3" width="1" height="1" fill="#6B4226"/><rect x="10" y="3" width="1" height="1" fill="#3D2B1F"/><rect x="4" y="4" width="1" height="1" fill="#8B5E3C"/><rect x="5" y="4" width="1" height="1" fill="#6B4226"/><rect x="6" y="4" width="1" height="1" fill="#FFF5E6"/><rect x="7" y="4" width="1" height="1" fill="#FFF5E6"/><rect x="8" y="4" width="1" height="1" fill="#FFF5E6"/><rect x="9" y="4" width="1" height="1" fill="#FFF5E6"/><rect x="10" y="4" width="1" height="1" fill="#6B4226"/><rect x="11" y="4" width="1" height="1" fill="#3D2B1F"/><rect x="3" y="5" width="1" height="1" fill="#3D2B1F"/><rect x="4" y="5" width="1" height="1" fill="#FFB800"/><rect x="5" y="5" width="1" height="1" fill="#FFB800"/><rect x="6" y="5" width="1" height="1" fill="#FFB800"/><rect x="7" y="5" width="1" height="1" fill="#FFF5E6"/><rect x="8" y="5" width="1" height="1" fill="#FFF5E6"/><rect x="9" y="5" width="1" height="1" fill="#FFB800"/><rect x="10" y="5" width="1" height="1" fill="#FFB800"/><rect x="11" y="5" width="1" height="1" fill="#FFB800"/><rect x="12" y="5" width="1" height="1" fill="#3D2B1F"/><rect x="3" y="6" width="1" height="1" fill="#6B4226"/><rect x="4" y="6" width="1" height="1" fill="#FFB800"/><rect x="5" y="6" width="1" height="1" fill="#FFFFFF"/><rect x="6" y="6" width="1" height="1" fill="#1A1A1A"/><rect x="7" y="6" width="1" height="1" fill="#FFF5E6"/><rect x="8" y="6" width="1" height="1" fill="#FFF5E6"/><rect x="9" y="6" width="1" height="1" fill="#FFB800"/><rect x="10" y="6" width="1" height="1" fill="#FFFFFF"/><rect x="11" y="6" width="1" height="1" fill="#1A1A1A"/><rect x="12" y="6" width="1" height="1" fill="#6B4226"/><rect x="2" y="7" width="1" height="1" fill="#3D2B1F"/><rect x="3" y="7" width="1" height="1" fill="#6B4226"/><rect x="4" y="7" width="1" height="1" fill="#FFB800"/><rect x="5" y="7" width="1" height="1" fill="#1A1A1A"/><rect x="6" y="7" width="1" height="1" fill="#1A1A1A"/><rect x="7" y="7" width="1" height="1" fill="#FFF5E6"/><rect x="8" y="7" width="1" height="1" fill="#FFF5E6"/><rect x="9" y="7" width="1" height="1" fill="#FFB800"/><rect x="10" y="7" width="1" height="1" fill="#1A1A1A"/><rect x="11" y="7" width="1" height="1" fill="#1A1A1A"/><rect x="12" y="7" width="1" height="1" fill="#6B4226"/><rect x="13" y="7" width="1" height="1" fill="#3D2B1F"/><rect x="2" y="8" width="1" height="1" fill="#3D2B1F"/><rect x="3" y="8" width="1" height="1" fill="#6B4226"/><rect x="4" y="8" width="1" height="1" fill="#FFB6C1"/><rect x="5" y="8" width="1" height="1" fill="#FFF5E6"/><rect x="6" y="8" width="1" height="1" fill="#FFF5E6"/><rect x="7" y="8" width="1" height="1" fill="#FFF5E6"/><rect x="8" y="8" width="1" height="1" fill="#FF6B00"/><rect x="9" y="8" width="1" height="1" fill="#FFF5E6"/><rect x="10" y="8" width="1" height="1" fill="#FFF5E6"/><rect x="11" y="8" width="1" height="1" fill="#FFB6C1"/><rect x="12" y="8" width="1" height="1" fill="#6B4226"/><rect x="13" y="8" width="1" height="1" fill="#3D2B1F"/><rect x="1" y="9" width="1" height="1" fill="#5C3A1E"/><rect x="3" y="9" width="1" height="1" fill="#6B4226"/><rect x="4" y="9" width="1" height="1" fill="#6B4226"/><rect x="5" y="9" width="1" height="1" fill="#FFF5E6"/><rect x="6" y="9" width="1" height="1" fill="#FFF5E6"/><rect x="7" y="9" width="1" height="1" fill="#FFF5E6"/><rect x="8" y="9" width="1" height="1" fill="#FFF5E6"/><rect x="9" y="9" width="1" height="1" fill="#FFF5E6"/><rect x="10" y="9" width="1" height="1" fill="#FFF5E6"/><rect x="11" y="9" width="1" height="1" fill="#6B4226"/><rect x="12" y="9" width="1" height="1" fill="#6B4226"/><rect x="14" y="9" width="1" height="1" fill="#5C3A1E"/><rect x="1" y="10" width="1" height="1" fill="#4A2E17"/><rect x="3" y="10" width="1" height="1" fill="#3D2B1F"/><rect x="4" y="10" width="1" height="1" fill="#6B4226"/><rect x="5" y="10" width="1" height="1" fill="#6B4226"/><rect x="6" y="10" width="1" height="1" fill="#FFF5E6"/><rect x="7" y="10" width="1" height="1" fill="#FFF5E6"/><rect x="8" y="10" width="1" height="1" fill="#FFF5E6"/><rect x="9" y="10" width="1" height="1" fill="#FFF5E6"/><rect x="10" y="10" width="1" height="1" fill="#6B4226"/><rect x="11" y="10" width="1" height="1" fill="#6B4226"/><rect x="12" y="10" width="1" height="1" fill="#3D2B1F"/><rect x="14" y="10" width="1" height="1" fill="#4A2E17"/><rect x="4" y="11" width="1" height="1" fill="#3D2B1F"/><rect x="5" y="11" width="1" height="1" fill="#6B4226"/><rect x="6" y="11" width="1" height="1" fill="#6B4226"/><rect x="7" y="11" width="1" height="1" fill="#6B4226"/><rect x="8" y="11" width="1" height="1" fill="#6B4226"/><rect x="9" y="11" width="1" height="1" fill="#6B4226"/><rect x="10" y="11" width="1" height="1" fill="#6B4226"/><rect x="11" y="11" width="1" height="1" fill="#3D2B1F"/><rect x="5" y="12" width="1" height="1" fill="#3D2B1F"/><rect x="6" y="12" width="1" height="1" fill="#6B4226"/><rect x="7" y="12" width="1" height="1" fill="#6B4226"/><rect x="8" y="12" width="1" height="1" fill="#6B4226"/><rect x="9" y="12" width="1" height="1" fill="#6B4226"/><rect x="10" y="12" width="1" height="1" fill="#3D2B1F"/><rect x="6" y="13" width="1" height="1" fill="#D4760A"/><rect x="7" y="13" width="1" height="1" fill="#3D2B1F"/><rect x="8" y="13" width="1" height="1" fill="#3D2B1F"/><rect x="10" y="13" width="1" height="1" fill="#D4760A"/></svg>
